<svg width="35" height="53" viewBox="0 0 35 53" fill="none" xmlns="http://www.w3.org/2000/svg">
<line x1="0.993469" y1="-2.18557e-08" x2="0.993471" y2="34.0749" stroke="#2F2F2F"/>
<line x1="11.9461" y1="1.21698" x2="11.9461" y2="34.0749" stroke="#2F2F2F"/>
<line x1="22.8988" y1="1.21698" x2="22.8988" y2="34.0749" stroke="#2F2F2F"/>
<line x1="33.8514" y1="-2.18557e-08" x2="33.8514" y2="34.0749" stroke="#2F2F2F"/>
<line x1="0.493469" y1="33.5749" x2="34.5683" y2="33.5749" stroke="#2F2F2F"/>
<line x1="0.493469" y1="11.6696" x2="33.3514" y2="11.6696" stroke="#2F2F2F"/>
<line x1="0.493469" y1="22.6223" x2="33.3514" y2="22.6223" stroke="#2F2F2F"/>
<line x1="0.493469" y1="0.71698" x2="34.5683" y2="0.716979" stroke="#2F2F2F"/>
<path d="M17.5309 6.08481H6.57828V27.9901H17.5309" stroke="white"/>
<path d="M6.17969 44.293V45.3711C5.65365 44.931 5.10938 44.7109 4.54688 44.7109C3.92708 44.7109 3.40495 44.9336 2.98047 45.3789C2.55339 45.8216 2.33984 46.3633 2.33984 47.0039C2.33984 47.6367 2.55339 48.1706 2.98047 48.6055C3.40755 49.0404 3.93099 49.2578 4.55078 49.2578C4.87109 49.2578 5.14323 49.2057 5.36719 49.1016C5.49219 49.0495 5.62109 48.9792 5.75391 48.8906C5.88932 48.8021 6.03125 48.6953 6.17969 48.5703V49.668C5.65885 49.9622 5.11198 50.1094 4.53906 50.1094C3.67708 50.1094 2.94141 49.8086 2.33203 49.207C1.72526 48.6003 1.42188 47.8685 1.42188 47.0117C1.42188 46.2435 1.67578 45.5586 2.18359 44.957C2.80859 44.2201 3.61719 43.8516 4.60938 43.8516C5.15104 43.8516 5.67448 43.9987 6.17969 44.293ZM6.98438 48.0703C6.98438 47.5208 7.18099 47.0534 7.57422 46.668C7.96745 46.2826 8.44661 46.0898 9.01172 46.0898C9.57943 46.0898 10.0612 46.2839 10.457 46.6719C10.8477 47.0599 11.043 47.5365 11.043 48.1016C11.043 48.6719 10.8464 49.1497 10.4531 49.5352C10.0573 49.918 9.57161 50.1094 8.99609 50.1094C8.42578 50.1094 7.94792 49.9141 7.5625 49.5234C7.17708 49.138 6.98438 48.6536 6.98438 48.0703ZM7.88281 48.0859C7.88281 48.4661 7.98438 48.7669 8.1875 48.9883C8.39583 49.2122 8.67057 49.3242 9.01172 49.3242C9.35547 49.3242 9.63021 49.2135 9.83594 48.9922C10.0417 48.7708 10.1445 48.4753 10.1445 48.1055C10.1445 47.7357 10.0417 47.4401 9.83594 47.2188C9.6276 46.9948 9.35286 46.8828 9.01172 46.8828C8.67578 46.8828 8.40365 46.9948 8.19531 47.2188C7.98698 47.4427 7.88281 47.7318 7.88281 48.0859ZM12.8555 52.0703H11.9766V46.1953H12.8555V46.6094C13.2018 46.263 13.5951 46.0898 14.0352 46.0898C14.5586 46.0898 14.9896 46.2826 15.3281 46.668C15.6719 47.0508 15.8438 47.5339 15.8438 48.1172C15.8438 48.6875 15.6732 49.1628 15.332 49.543C14.9935 49.9206 14.5664 50.1094 14.0508 50.1094C13.6055 50.1094 13.207 49.931 12.8555 49.5742V52.0703ZM14.9453 48.1211C14.9453 47.7565 14.8464 47.4596 14.6484 47.2305C14.4479 46.9987 14.1953 46.8828 13.8906 46.8828C13.5677 46.8828 13.306 46.9948 13.1055 47.2188C12.9049 47.4427 12.8047 47.737 12.8047 48.1016C12.8047 48.4583 12.9049 48.7526 13.1055 48.9844C13.3034 49.2109 13.5638 49.3242 13.8867 49.3242C14.1914 49.3242 14.4427 49.2096 14.6406 48.9805C14.8438 48.7513 14.9453 48.4648 14.9453 48.1211ZM17.8008 49.293L16.0898 46.1953H17.1094L18.2734 48.3828L19.3594 46.1953H20.3516L17.3203 52.0703H16.3164L17.8008 49.293Z" fill="white"/>
</svg>
