<svg width="35" height="51" viewBox="0 0 35 51" fill="none" xmlns="http://www.w3.org/2000/svg">
<line x1="0.614578" y1="-2.18557e-08" x2="0.61458" y2="34.0749" stroke="#2F2F2F"/>
<line x1="11.5672" y1="1.21698" x2="11.5672" y2="34.0749" stroke="#2F2F2F"/>
<line x1="22.5199" y1="1.21698" x2="22.5199" y2="34.0749" stroke="#2F2F2F"/>
<line x1="33.4725" y1="-2.18557e-08" x2="33.4725" y2="34.0749" stroke="#2F2F2F"/>
<line x1="0.114578" y1="33.5749" x2="34.1895" y2="33.5749" stroke="#2F2F2F"/>
<line x1="0.114578" y1="11.6696" x2="32.9725" y2="11.6696" stroke="#2F2F2F"/>
<line x1="0.114578" y1="22.6223" x2="32.9725" y2="22.6223" stroke="#2F2F2F"/>
<line x1="0.114578" y1="0.71698" x2="34.1895" y2="0.716979" stroke="#2F2F2F"/>
<path d="M28.1046 17.0374V27.9901H6.19937V17.0374" stroke="white"/>
<path d="M5.17969 44.293V45.3711C4.65365 44.931 4.10938 44.7109 3.54688 44.7109C2.92708 44.7109 2.40495 44.9336 1.98047 45.3789C1.55339 45.8216 1.33984 46.3633 1.33984 47.0039C1.33984 47.6367 1.55339 48.1706 1.98047 48.6055C2.40755 49.0404 2.93099 49.2578 3.55078 49.2578C3.87109 49.2578 4.14323 49.2057 4.36719 49.1016C4.49219 49.0495 4.62109 48.9792 4.75391 48.8906C4.88932 48.8021 5.03125 48.6953 5.17969 48.5703V49.668C4.65885 49.9622 4.11198 50.1094 3.53906 50.1094C2.67708 50.1094 1.94141 49.8086 1.33203 49.207C0.72526 48.6003 0.421875 47.8685 0.421875 47.0117C0.421875 46.2435 0.675781 45.5586 1.18359 44.957C1.80859 44.2201 2.61719 43.8516 3.60938 43.8516C4.15104 43.8516 4.67448 43.9987 5.17969 44.293ZM7.04297 46.1953V48.3789C7.04297 49.0091 7.29167 49.3242 7.78906 49.3242C8.28646 49.3242 8.53516 49.0091 8.53516 48.3789V46.1953H9.41406V48.3984C9.41406 48.7031 9.3763 48.9661 9.30078 49.1875C9.22786 49.3854 9.10156 49.5638 8.92188 49.7227C8.625 49.9805 8.2474 50.1094 7.78906 50.1094C7.33333 50.1094 6.95703 49.9805 6.66016 49.7227C6.47786 49.5638 6.34896 49.3854 6.27344 49.1875C6.20052 49.0104 6.16406 48.7474 6.16406 48.3984V46.1953H7.04297ZM11.4297 47.0156V50H10.5508V47.0156H10.1758V46.1953H10.5508V44.8008H11.4297V46.1953H12.1133V47.0156H11.4297Z" fill="white"/>
</svg>
