<svg width="35" height="51" viewBox="0 0 35 51" fill="none" xmlns="http://www.w3.org/2000/svg">
<line x1="1.2561" y1="-2.18557e-08" x2="1.25611" y2="34.2439" stroke="#2F2F2F"/>
<line x1="12.2631" y1="1.22299" x2="12.2631" y2="34.2439" stroke="#2F2F2F"/>
<line x1="23.27" y1="1.22299" x2="23.27" y2="34.2439" stroke="#2F2F2F"/>
<line x1="34.277" y1="-2.18557e-08" x2="34.277" y2="34.2439" stroke="#2F2F2F"/>
<line x1="0.756103" y1="33.7439" x2="35" y2="33.7439" stroke="#2F2F2F"/>
<line x1="0.756103" y1="11.7299" x2="33.777" y2="11.7299" stroke="#2F2F2F"/>
<line x1="0.756103" y1="22.7369" x2="33.777" y2="22.7369" stroke="#2F2F2F"/>
<line x1="0.756103" y1="0.722992" x2="35" y2="0.722991" stroke="#2F2F2F"/>
<line x1="1.2561" y1="-2.18557e-08" x2="1.25611" y2="34.2439" stroke="#2F2F2F"/>
<line x1="12.2631" y1="1.22299" x2="12.2631" y2="34.2439" stroke="#2F2F2F"/>
<line x1="23.27" y1="1.22299" x2="23.27" y2="34.2439" stroke="#2F2F2F"/>
<line x1="0.756103" y1="33.7439" x2="35" y2="33.7439" stroke="#2F2F2F"/>
<line x1="0.756103" y1="11.7299" x2="33.777" y2="11.7299" stroke="#2F2F2F"/>
<line x1="0.756103" y1="22.7369" x2="33.777" y2="22.7369" stroke="#2F2F2F"/>
<line x1="0.756103" y1="0.722992" x2="35" y2="0.722991" stroke="#2F2F2F"/>
<path d="M17.8781 29.3519V6.11499H29.4965" stroke="white"/>
<path d="M2.59976 43.6017V49.633H1.68961V43.6017H2.59976ZM3.88101 45.8283H4.76382V46.1799C5.07112 45.8752 5.41747 45.7228 5.80289 45.7228C6.2456 45.7228 6.59065 45.8622 6.83804 46.1408C7.05158 46.3778 7.15836 46.7645 7.15836 47.301V49.633H6.27554V47.508C6.27554 47.133 6.22346 46.8739 6.11929 46.7307C6.01773 46.5848 5.83283 46.5119 5.56461 46.5119C5.27294 46.5119 5.06591 46.6083 4.94351 46.801C4.82372 46.9911 4.76382 47.3231 4.76382 47.7971V49.633H3.88101V45.8283ZM10.4826 46.4767L9.75601 46.8635C9.64143 46.6291 9.4995 46.5119 9.33023 46.5119C9.2495 46.5119 9.18049 46.5392 9.1232 46.5939C9.06591 46.646 9.03726 46.7137 9.03726 46.7971C9.03726 46.9429 9.20653 47.0874 9.54507 47.2307C10.0112 47.4312 10.325 47.6161 10.4865 47.7853C10.6479 47.9546 10.7287 48.1825 10.7287 48.4689C10.7287 48.8361 10.5933 49.1434 10.3224 49.3908C10.0594 49.6252 9.74169 49.7424 9.36929 49.7424C8.73127 49.7424 8.27945 49.4312 8.01382 48.8088L8.76382 48.4611C8.86799 48.6434 8.94742 48.7593 9.00211 48.8088C9.10888 48.9077 9.23648 48.9572 9.38492 48.9572C9.68179 48.9572 9.83023 48.8218 9.83023 48.551C9.83023 48.3947 9.71565 48.2489 9.48648 48.1135C9.39794 48.0692 9.3094 48.0262 9.22086 47.9846C9.13231 47.9429 9.04247 47.8999 8.95132 47.8557C8.69612 47.7307 8.51643 47.6057 8.41226 47.4807C8.27945 47.3218 8.21304 47.1174 8.21304 46.8674C8.21304 46.5366 8.32632 46.2632 8.55289 46.0471C8.78466 45.8309 9.06591 45.7228 9.39664 45.7228C9.88362 45.7228 10.2456 45.9741 10.4826 46.4767ZM14.9865 47.9377H12.2599C12.2834 48.2502 12.3849 48.4989 12.5646 48.6838C12.7443 48.8661 12.9748 48.9572 13.256 48.9572C13.4748 48.9572 13.6558 48.9051 13.799 48.801C13.9396 48.6968 14.0998 48.5041 14.2794 48.2228L15.0216 48.6369C14.9071 48.8322 14.786 49.0002 14.6584 49.1408C14.5308 49.2788 14.394 49.3934 14.2482 49.4846C14.1024 49.5731 13.9448 49.6382 13.7755 49.6799C13.6063 49.7215 13.4227 49.7424 13.2248 49.7424C12.6571 49.7424 12.2013 49.5601 11.8576 49.1955C11.5138 48.8283 11.3419 48.3413 11.3419 47.7346C11.3419 47.133 11.5086 46.646 11.8419 46.2736C12.1779 45.9064 12.6232 45.7228 13.1779 45.7228C13.7378 45.7228 14.1805 45.9012 14.506 46.258C14.8289 46.6122 14.9904 47.103 14.9904 47.7307L14.9865 47.9377ZM14.0841 47.2189C13.9617 46.7502 13.6662 46.5158 13.1974 46.5158C13.0906 46.5158 12.9904 46.5327 12.8966 46.5666C12.8029 46.5978 12.7169 46.6447 12.6388 46.7072C12.5633 46.7671 12.4982 46.84 12.4435 46.926C12.3888 47.0119 12.3472 47.1096 12.3185 47.2189H14.0841ZM15.9513 45.8283H16.8302V46.1682C16.9917 45.9989 17.1349 45.883 17.2599 45.8205C17.3875 45.7554 17.5386 45.7228 17.713 45.7228C17.9448 45.7228 18.187 45.7984 18.4396 45.9494L18.0373 46.7541C17.8706 46.6343 17.7078 46.5744 17.549 46.5744C17.0698 46.5744 16.8302 46.9364 16.8302 47.6603V49.633H15.9513V45.8283ZM20.1388 46.6486V49.633H19.2599V46.6486H18.8849V45.8283H19.2599V44.4338H20.1388V45.8283H20.8224V46.6486H20.1388Z" fill="white"/>
</svg>
