<svg width="35" height="51" viewBox="0 0 35 51" fill="none" xmlns="http://www.w3.org/2000/svg">
<line x1="0.804016" y1="-2.18557e-08" x2="0.804018" y2="34.0749" stroke="#2F2F2F"/>
<line x1="11.7567" y1="1.21698" x2="11.7567" y2="34.0749" stroke="#2F2F2F"/>
<line x1="22.7093" y1="1.21698" x2="22.7093" y2="34.0749" stroke="#2F2F2F"/>
<line x1="33.6619" y1="-2.18557e-08" x2="33.6619" y2="34.0749" stroke="#2F2F2F"/>
<line x1="0.304016" y1="33.5749" x2="34.3789" y2="33.5749" stroke="#2F2F2F"/>
<line x1="0.304016" y1="11.6696" x2="33.1619" y2="11.6696" stroke="#2F2F2F"/>
<line x1="0.304016" y1="22.6223" x2="33.1619" y2="22.6223" stroke="#2F2F2F"/>
<line x1="0.304016" y1="0.71698" x2="34.3789" y2="0.716979" stroke="#2F2F2F"/>
<path d="M17.3415 29.207V6.08481H28.2941V17.0374" stroke="white"/>
<path d="M2.63281 47.5508V50H1.72266V43.9688H2.75391C3.25911 43.9688 3.64062 44.0039 3.89844 44.0742C4.15885 44.1445 4.38802 44.2773 4.58594 44.4727C4.93229 44.8112 5.10547 45.2383 5.10547 45.7539C5.10547 46.306 4.92057 46.7435 4.55078 47.0664C4.18099 47.3893 3.68229 47.5508 3.05469 47.5508H2.63281ZM2.63281 46.707H2.97266C3.80859 46.707 4.22656 46.3854 4.22656 45.7422C4.22656 45.1198 3.79557 44.8086 2.93359 44.8086H2.63281V46.707ZM8.46094 46.1953H9.34375V50H8.46094V49.6016C8.09896 49.9401 7.70964 50.1094 7.29297 50.1094C6.76693 50.1094 6.33203 49.9193 5.98828 49.5391C5.64714 49.151 5.47656 48.6667 5.47656 48.0859C5.47656 47.5156 5.64714 47.0404 5.98828 46.6602C6.32943 46.2799 6.75651 46.0898 7.26953 46.0898C7.71224 46.0898 8.10938 46.2721 8.46094 46.6367V46.1953ZM6.375 48.0859C6.375 48.4505 6.47266 48.7474 6.66797 48.9766C6.86849 49.2083 7.12109 49.3242 7.42578 49.3242C7.7513 49.3242 8.01432 49.2122 8.21484 48.9883C8.41536 48.7565 8.51562 48.4622 8.51562 48.1055C8.51562 47.7487 8.41536 47.4544 8.21484 47.2227C8.01432 46.9961 7.75391 46.8828 7.43359 46.8828C7.13151 46.8828 6.87891 46.9974 6.67578 47.2266C6.47526 47.4583 6.375 47.7448 6.375 48.0859ZM12.6641 46.8438L11.9375 47.2305C11.8229 46.9961 11.681 46.8789 11.5117 46.8789C11.431 46.8789 11.362 46.9062 11.3047 46.9609C11.2474 47.013 11.2188 47.0807 11.2188 47.1641C11.2188 47.3099 11.388 47.4544 11.7266 47.5977C12.1927 47.7982 12.5065 47.9831 12.668 48.1523C12.8294 48.3216 12.9102 48.5495 12.9102 48.8359C12.9102 49.2031 12.7747 49.5104 12.5039 49.7578C12.2409 49.9922 11.9232 50.1094 11.5508 50.1094C10.9128 50.1094 10.4609 49.7982 10.1953 49.1758L10.9453 48.8281C11.0495 49.0104 11.1289 49.1263 11.1836 49.1758C11.2904 49.2747 11.418 49.3242 11.5664 49.3242C11.8633 49.3242 12.0117 49.1888 12.0117 48.918C12.0117 48.7617 11.8971 48.6159 11.668 48.4805C11.5794 48.4362 11.4909 48.3932 11.4023 48.3516C11.3138 48.3099 11.224 48.2669 11.1328 48.2227C10.8776 48.0977 10.6979 47.9727 10.5938 47.8477C10.4609 47.6888 10.3945 47.4844 10.3945 47.2344C10.3945 46.9036 10.5078 46.6302 10.7344 46.4141C10.9661 46.1979 11.2474 46.0898 11.5781 46.0898C12.0651 46.0898 12.4271 46.3411 12.6641 46.8438ZM14.6094 47.0156V50H13.7305V47.0156H13.3555V46.1953H13.7305V44.8008H14.6094V46.1953H15.293V47.0156H14.6094ZM19.4258 48.3047H16.6992C16.7227 48.6172 16.8242 48.8659 17.0039 49.0508C17.1836 49.2331 17.4141 49.3242 17.6953 49.3242C17.9141 49.3242 18.0951 49.2721 18.2383 49.168C18.3789 49.0638 18.5391 48.8711 18.7188 48.5898L19.4609 49.0039C19.3464 49.1992 19.2253 49.3672 19.0977 49.5078C18.9701 49.6458 18.8333 49.7604 18.6875 49.8516C18.5417 49.9401 18.3841 50.0052 18.2148 50.0469C18.0456 50.0885 17.862 50.1094 17.6641 50.1094C17.0964 50.1094 16.6406 49.9271 16.2969 49.5625C15.9531 49.1953 15.7812 48.7083 15.7812 48.1016C15.7812 47.5 15.9479 47.013 16.2812 46.6406C16.6172 46.2734 17.0625 46.0898 17.6172 46.0898C18.1771 46.0898 18.6198 46.2682 18.9453 46.625C19.2682 46.9792 19.4297 47.4701 19.4297 48.0977L19.4258 48.3047ZM18.5234 47.5859C18.401 47.1172 18.1055 46.8828 17.6367 46.8828C17.5299 46.8828 17.4297 46.8997 17.3359 46.9336C17.2422 46.9648 17.1562 47.0117 17.0781 47.0742C17.0026 47.1341 16.9375 47.207 16.8828 47.293C16.8281 47.3789 16.7865 47.4766 16.7578 47.5859H18.5234Z" fill="white"/>
</svg>
