<svg width="74" height="77" viewBox="0 0 74 77" fill="none" xmlns="http://www.w3.org/2000/svg">
<rect x="73.9937" y="26.0352" width="25.0337" height="26.035" transform="rotate(-180 73.9937 26.0352)" fill="#FC5081"/>
<rect x="25.0337" y="26.0361" width="25.0337" height="26.035" transform="rotate(-180 25.0337 26.0361)" fill="#4E8DC4"/>
<rect x="25.0337" y="77" width="25.0337" height="26.035" transform="rotate(-180 25.0337 77)" fill="#5CB290"/>
<rect x="49.5137" y="77" width="25.0337" height="26.035" transform="rotate(-180 49.5137 77)" fill="#ADC861"/>
<rect x="73.9937" y="77" width="25.0337" height="26.035" transform="rotate(-180 73.9937 77)" fill="#FEDD32"/>
<rect x="49.5137" y="26.0352" width="25.0337" height="26.035" transform="rotate(-180 49.5137 26.0352)" fill="#A56FA3"/>
<rect x="73.9937" y="51.5186" width="25.0337" height="26.035" transform="rotate(-180 73.9937 51.5186)" fill="#FC5081"/>
<rect x="25.0337" y="51.5186" width="25.0337" height="26.035" transform="rotate(-180 25.0337 51.5186)" fill="#55A0AA"/>
<path d="M49.5137 51.5186L24.48 51.5186L24.48 25.4835L49.5137 25.4835L49.5137 51.5186Z" fill="#FC5081"/>
</svg>
