<svg width="35" height="53" viewBox="0 0 35 53" fill="none" xmlns="http://www.w3.org/2000/svg">
<line x1="34.283" y1="-2.18557e-08" x2="34.283" y2="34.0749" stroke="#2F2F2F"/>
<line x1="1.5" y1="-2.18557e-08" x2="1.5" y2="34" stroke="#2F2F2F"/>
<line x1="12.5" y1="1" x2="12.5" y2="34" stroke="#2F2F2F"/>
<line x1="23.5" y1="1" x2="23.5" y2="34" stroke="#2F2F2F"/>
<line x1="1" y1="33.5" x2="35" y2="33.5" stroke="#2F2F2F"/>
<line x1="1" y1="11.5" x2="34" y2="11.5" stroke="#2F2F2F"/>
<line x1="1" y1="22.5" x2="34" y2="22.5" stroke="#2F2F2F"/>
<line x1="1" y1="0.5" x2="35" y2="0.499999" stroke="#2F2F2F"/>
<path d="M7 17V28H29V6H17.3889" stroke="white"/>
<path d="M5.17969 44.293V45.3711C4.65365 44.931 4.10938 44.7109 3.54688 44.7109C2.92708 44.7109 2.40495 44.9336 1.98047 45.3789C1.55339 45.8216 1.33984 46.3633 1.33984 47.0039C1.33984 47.6367 1.55339 48.1706 1.98047 48.6055C2.40755 49.0404 2.93099 49.2578 3.55078 49.2578C3.87109 49.2578 4.14323 49.2057 4.36719 49.1016C4.49219 49.0495 4.62109 48.9792 4.75391 48.8906C4.88932 48.8021 5.03125 48.6953 5.17969 48.5703V49.668C4.65885 49.9622 4.11198 50.1094 3.53906 50.1094C2.67708 50.1094 1.94141 49.8086 1.33203 49.207C0.72526 48.6003 0.421875 47.8685 0.421875 47.0117C0.421875 46.2435 0.675781 45.5586 1.18359 44.957C1.80859 44.2201 2.61719 43.8516 3.60938 43.8516C4.15104 43.8516 4.67448 43.9987 5.17969 44.293ZM6.16406 43.4023H7.04297V46.5117C7.35547 46.2305 7.70052 46.0898 8.07812 46.0898C8.50781 46.0898 8.85156 46.2292 9.10938 46.5078C9.32812 46.75 9.4375 47.1367 9.4375 47.668V50H8.55859V47.75C8.55859 47.4453 8.50391 47.2253 8.39453 47.0898C8.28776 46.9518 8.11458 46.8828 7.875 46.8828C7.56771 46.8828 7.35156 46.9779 7.22656 47.168C7.10417 47.3607 7.04297 47.6914 7.04297 48.1602V50H6.16406V43.4023ZM13.3594 46.1953H14.2422V50H13.3594V49.6016C12.9974 49.9401 12.6081 50.1094 12.1914 50.1094C11.6654 50.1094 11.2305 49.9193 10.8867 49.5391C10.5456 49.151 10.375 48.6667 10.375 48.0859C10.375 47.5156 10.5456 47.0404 10.8867 46.6602C11.2279 46.2799 11.6549 46.0898 12.168 46.0898C12.6107 46.0898 13.0078 46.2721 13.3594 46.6367V46.1953ZM11.2734 48.0859C11.2734 48.4505 11.3711 48.7474 11.5664 48.9766C11.7669 49.2083 12.0195 49.3242 12.3242 49.3242C12.6497 49.3242 12.9128 49.2122 13.1133 48.9883C13.3138 48.7565 13.4141 48.4622 13.4141 48.1055C13.4141 47.7487 13.3138 47.4544 13.1133 47.2227C12.9128 46.9961 12.6523 46.8828 12.332 46.8828C12.0299 46.8828 11.7773 46.9974 11.5742 47.2266C11.3737 47.4583 11.2734 47.7448 11.2734 48.0859ZM15.3516 46.1953H16.2344V46.5469C16.5417 46.2422 16.888 46.0898 17.2734 46.0898C17.7161 46.0898 18.0612 46.2292 18.3086 46.5078C18.5221 46.7448 18.6289 47.1315 18.6289 47.668V50H17.7461V47.875C17.7461 47.5 17.694 47.2409 17.5898 47.0977C17.4883 46.9518 17.3034 46.8789 17.0352 46.8789C16.7435 46.8789 16.5365 46.9753 16.4141 47.168C16.2943 47.3581 16.2344 47.6901 16.2344 48.1641V50H15.3516V46.1953ZM23.4219 49.9102C23.4219 50.0898 23.4154 50.2474 23.4023 50.3828C23.3919 50.5208 23.3763 50.6419 23.3555 50.7461C23.293 51.0326 23.1706 51.2786 22.9883 51.4844C22.6445 51.8802 22.1719 52.0781 21.5703 52.0781C21.0625 52.0781 20.6445 51.9414 20.3164 51.668C19.9779 51.3867 19.7826 50.9974 19.7305 50.5H20.6133C20.6471 50.6875 20.7031 50.832 20.7812 50.9336C20.9635 51.1706 21.2292 51.2891 21.5781 51.2891C22.2214 51.2891 22.543 50.8945 22.543 50.1055V49.5742C22.194 49.931 21.7917 50.1094 21.3359 50.1094C20.8177 50.1094 20.3932 49.9219 20.0625 49.5469C19.7292 49.1667 19.5625 48.6914 19.5625 48.1211C19.5625 47.5664 19.7174 47.0951 20.0273 46.707C20.3607 46.2956 20.8008 46.0898 21.3477 46.0898C21.8268 46.0898 22.2253 46.2682 22.543 46.625V46.1953H23.4219V49.9102ZM22.5781 48.1055C22.5781 47.7357 22.4792 47.4401 22.2812 47.2188C22.0807 46.9922 21.8242 46.8789 21.5117 46.8789C21.1784 46.8789 20.9154 47.0026 20.7227 47.25C20.5482 47.4714 20.4609 47.7578 20.4609 48.1094C20.4609 48.4557 20.5482 48.7396 20.7227 48.9609C20.9128 49.2031 21.1758 49.3242 21.5117 49.3242C21.8477 49.3242 22.1133 49.2018 22.3086 48.957C22.4883 48.7357 22.5781 48.4518 22.5781 48.1055ZM27.9961 48.3047H25.2695C25.293 48.6172 25.3945 48.8659 25.5742 49.0508C25.7539 49.2331 25.9844 49.3242 26.2656 49.3242C26.4844 49.3242 26.6654 49.2721 26.8086 49.168C26.9492 49.0638 27.1094 48.8711 27.2891 48.5898L28.0312 49.0039C27.9167 49.1992 27.7956 49.3672 27.668 49.5078C27.5404 49.6458 27.4036 49.7604 27.2578 49.8516C27.112 49.9401 26.9544 50.0052 26.7852 50.0469C26.6159 50.0885 26.4323 50.1094 26.2344 50.1094C25.6667 50.1094 25.2109 49.9271 24.8672 49.5625C24.5234 49.1953 24.3516 48.7083 24.3516 48.1016C24.3516 47.5 24.5182 47.013 24.8516 46.6406C25.1875 46.2734 25.6328 46.0898 26.1875 46.0898C26.7474 46.0898 27.1901 46.2682 27.5156 46.625C27.8385 46.9792 28 47.4701 28 48.0977L27.9961 48.3047ZM27.0938 47.5859C26.9714 47.1172 26.6758 46.8828 26.207 46.8828C26.1003 46.8828 26 46.8997 25.9062 46.9336C25.8125 46.9648 25.7266 47.0117 25.6484 47.0742C25.5729 47.1341 25.5078 47.207 25.4531 47.293C25.3984 47.3789 25.3568 47.4766 25.3281 47.5859H27.0938Z" fill="white"/>
</svg>
