<svg width="35" height="51" viewBox="0 0 35 51" fill="none" xmlns="http://www.w3.org/2000/svg">
<line x1="1.18292" y1="-2.18557e-08" x2="1.18292" y2="34.0749" stroke="#2F2F2F"/>
<line x1="12.1356" y1="1.21698" x2="12.1356" y2="34.0749" stroke="#2F2F2F"/>
<line x1="23.0882" y1="1.21698" x2="23.0882" y2="34.0749" stroke="#2F2F2F"/>
<line x1="34.0408" y1="-2.18557e-08" x2="34.0408" y2="34.0749" stroke="#2F2F2F"/>
<line x1="0.682922" y1="33.5749" x2="34.7578" y2="33.5749" stroke="#2F2F2F"/>
<line x1="0.682922" y1="11.6696" x2="33.5408" y2="11.6696" stroke="#2F2F2F"/>
<line x1="0.682922" y1="22.6223" x2="33.5408" y2="22.6223" stroke="#2F2F2F"/>
<line x1="0.682922" y1="0.71698" x2="34.7578" y2="0.716979" stroke="#2F2F2F"/>
<path d="M6.76773 27.9901H28.673V17.0374" stroke="white"/>
<line x1="12.1356" y1="1.21698" x2="12.1356" y2="34.0749" stroke="#2F2F2F"/>
<line x1="23.0882" y1="1.21698" x2="23.0882" y2="34.0749" stroke="#2F2F2F"/>
<line x1="0.682922" y1="33.5749" x2="34.7578" y2="33.5749" stroke="#2F2F2F"/>
<line x1="0.682922" y1="11.6696" x2="33.5408" y2="11.6696" stroke="#2F2F2F"/>
<line x1="0.682922" y1="22.6223" x2="33.5408" y2="22.6223" stroke="#2F2F2F"/>
<path d="M6.76773 27.9901H28.673V17.0374" stroke="white"/>
<path d="M1.72266 50V43.9688H2.98828C3.59505 43.9688 4.07422 44.0286 4.42578 44.1484C4.80339 44.2656 5.14583 44.4648 5.45312 44.7461C6.07552 45.3138 6.38672 46.0599 6.38672 46.9844C6.38672 47.9115 6.0625 48.6615 5.41406 49.2344C5.08854 49.5208 4.7474 49.7201 4.39062 49.832C4.05729 49.944 3.58464 50 2.97266 50H1.72266ZM2.63281 49.1445H3.04297C3.45182 49.1445 3.79167 49.1016 4.0625 49.0156C4.33333 48.9245 4.57812 48.7799 4.79688 48.582C5.24479 48.1732 5.46875 47.6406 5.46875 46.9844C5.46875 46.3229 5.2474 45.7865 4.80469 45.375C4.40625 45.0078 3.81901 44.8242 3.04297 44.8242H2.63281V49.1445ZM10.832 48.3047H8.10547C8.12891 48.6172 8.23047 48.8659 8.41016 49.0508C8.58984 49.2331 8.82031 49.3242 9.10156 49.3242C9.32031 49.3242 9.5013 49.2721 9.64453 49.168C9.78516 49.0638 9.94531 48.8711 10.125 48.5898L10.8672 49.0039C10.7526 49.1992 10.6315 49.3672 10.5039 49.5078C10.3763 49.6458 10.2396 49.7604 10.0938 49.8516C9.94792 49.9401 9.79036 50.0052 9.62109 50.0469C9.45182 50.0885 9.26823 50.1094 9.07031 50.1094C8.5026 50.1094 8.04688 49.9271 7.70312 49.5625C7.35938 49.1953 7.1875 48.7083 7.1875 48.1016C7.1875 47.5 7.35417 47.013 7.6875 46.6406C8.02344 46.2734 8.46875 46.0898 9.02344 46.0898C9.58333 46.0898 10.026 46.2682 10.3516 46.625C10.6745 46.9792 10.8359 47.4701 10.8359 48.0977L10.832 48.3047ZM9.92969 47.5859C9.80729 47.1172 9.51172 46.8828 9.04297 46.8828C8.9362 46.8828 8.83594 46.8997 8.74219 46.9336C8.64844 46.9648 8.5625 47.0117 8.48438 47.0742C8.40885 47.1341 8.34375 47.207 8.28906 47.293C8.23438 47.3789 8.19271 47.4766 8.16406 47.5859H9.92969ZM12.6758 43.4023V50H11.7969V43.4023H12.6758ZM17.2539 48.3047H14.5273C14.5508 48.6172 14.6523 48.8659 14.832 49.0508C15.0117 49.2331 15.2422 49.3242 15.5234 49.3242C15.7422 49.3242 15.9232 49.2721 16.0664 49.168C16.207 49.0638 16.3672 48.8711 16.5469 48.5898L17.2891 49.0039C17.1745 49.1992 17.0534 49.3672 16.9258 49.5078C16.7982 49.6458 16.6615 49.7604 16.5156 49.8516C16.3698 49.9401 16.2122 50.0052 16.043 50.0469C15.8737 50.0885 15.6901 50.1094 15.4922 50.1094C14.9245 50.1094 14.4688 49.9271 14.125 49.5625C13.7812 49.1953 13.6094 48.7083 13.6094 48.1016C13.6094 47.5 13.776 47.013 14.1094 46.6406C14.4453 46.2734 14.8906 46.0898 15.4453 46.0898C16.0052 46.0898 16.4479 46.2682 16.7734 46.625C17.0964 46.9792 17.2578 47.4701 17.2578 48.0977L17.2539 48.3047ZM16.3516 47.5859C16.2292 47.1172 15.9336 46.8828 15.4648 46.8828C15.3581 46.8828 15.2578 46.8997 15.1641 46.9336C15.0703 46.9648 14.9844 47.0117 14.9062 47.0742C14.8307 47.1341 14.7656 47.207 14.7109 47.293C14.6562 47.3789 14.6146 47.4766 14.5859 47.5859H16.3516ZM19.1953 47.0156V50H18.3164V47.0156H17.9414V46.1953H18.3164V44.8008H19.1953V46.1953H19.8789V47.0156H19.1953ZM24.0117 48.3047H21.2852C21.3086 48.6172 21.4102 48.8659 21.5898 49.0508C21.7695 49.2331 22 49.3242 22.2812 49.3242C22.5 49.3242 22.681 49.2721 22.8242 49.168C22.9648 49.0638 23.125 48.8711 23.3047 48.5898L24.0469 49.0039C23.9323 49.1992 23.8112 49.3672 23.6836 49.5078C23.556 49.6458 23.4193 49.7604 23.2734 49.8516C23.1276 49.9401 22.9701 50.0052 22.8008 50.0469C22.6315 50.0885 22.4479 50.1094 22.25 50.1094C21.6823 50.1094 21.2266 49.9271 20.8828 49.5625C20.5391 49.1953 20.3672 48.7083 20.3672 48.1016C20.3672 47.5 20.5339 47.013 20.8672 46.6406C21.2031 46.2734 21.6484 46.0898 22.2031 46.0898C22.763 46.0898 23.2057 46.2682 23.5312 46.625C23.8542 46.9792 24.0156 47.4701 24.0156 48.0977L24.0117 48.3047ZM23.1094 47.5859C22.987 47.1172 22.6914 46.8828 22.2227 46.8828C22.1159 46.8828 22.0156 46.8997 21.9219 46.9336C21.8281 46.9648 21.7422 47.0117 21.6641 47.0742C21.5885 47.1341 21.5234 47.207 21.4688 47.293C21.4141 47.3789 21.3724 47.4766 21.3438 47.5859H23.1094Z" fill="white"/>
</svg>
