<svg width="29" height="31" viewBox="0 0 29 31" fill="none" xmlns="http://www.w3.org/2000/svg">
<rect x="29" y="10.2041" width="9.81139" height="10.2038" transform="rotate(-180 29 10.2041)" fill="#FC5081"/>
<rect x="9.81152" y="10.2051" width="9.81139" height="10.2038" transform="rotate(-180 9.81152 10.2051)" fill="#4E8DC4"/>
<rect x="9.81152" y="30.1787" width="9.81139" height="10.2038" transform="rotate(-180 9.81152 30.1787)" fill="#5CB290"/>
<rect x="19.4058" y="30.1787" width="9.81139" height="10.2038" transform="rotate(-180 19.4058 30.1787)" fill="#ADC861"/>
<rect x="29" y="30.1787" width="9.81139" height="10.2038" transform="rotate(-180 29 30.1787)" fill="#FEDD32"/>
<rect x="19.4058" y="10.2041" width="9.81139" height="10.2038" transform="rotate(-180 19.4058 10.2041)" fill="#A56FA3"/>
<rect x="29" y="20.1914" width="9.81139" height="10.2038" transform="rotate(-180 29 20.1914)" fill="#FC5081"/>
<rect x="9.81152" y="20.1914" width="9.81139" height="10.2038" transform="rotate(-180 9.81152 20.1914)" fill="#55A0AA"/>
<path d="M19.4058 20.1914L9.59438 20.1914L9.59438 9.98757L19.4058 9.98757L19.4058 20.1914Z" fill="#FC5081"/>
</svg>
