<svg width="28" height="28" viewBox="0 0 28 28" fill="none" xmlns="http://www.w3.org/2000/svg">
<path d="M8.52173 15.8261C9.52061 16.6087 12.0178 19.4783 12.0178 19.4783C12.0178 19.4783 17.7302 12.9565 19.4783 8.52173" stroke="white" stroke-width="2"/>
<path d="M27 14C27 16.8312 26.0035 20.0989 23.884 22.6424C21.7877 25.158 18.5671 27 14 27C9.35622 27 6.14838 25.5139 4.09076 23.2301C2.01708 20.9285 1 17.6924 1 14C1 10.9703 2.52767 7.70847 4.97815 5.18592C7.42475 2.66735 10.6799 1 14 1C18.6438 1 21.8516 2.48609 23.9092 4.76987C25.9829 7.07148 27 10.3076 27 14Z" stroke="white" stroke-width="2"/>
</svg>
